<?xml version="1.0" standalone="no"?>
<!DOCTYPE svg PUBLIC "-//W3C//DTD SVG 20010904//EN"
 "http://www.w3.org/TR/2001/REC-SVG-20010904/DTD/svg10.dtd">
<svg version="1.0" xmlns="http://www.w3.org/2000/svg"
 width="842.000000pt" height="595.000000pt" viewBox="0 0 842.000000 595.000000"
 preserveAspectRatio="xMidYMid meet">

<g transform="translate(0.000000,595.000000) scale(0.100000,-0.100000)"
fill="#000000" stroke="none">
<path d="M1473 3748 c76 -171 255 -581 290 -663 l48 -110 -160 -390 -159 -390
401 -3 c220 -1 402 0 405 2 2 3 -72 180 -165 393 l-169 388 104 255 c57 140
110 272 119 293 l15 37 249 0 249 0 0 -690 0 -690 275 0 275 0 0 790 0 790
-891 0 c-709 0 -890 -3 -886 -12z m500 -370 c-41 -101 -78 -191 -82 -202 -5
-13 -29 31 -90 170 -46 104 -85 195 -88 202 -4 9 33 12 164 12 l170 0 -74
-182z m1117 -428 l0 -610 -115 0 -115 0 0 610 0 610 115 0 115 0 0 -610z
m-1099 -387 l95 -218 -184 -3 c-102 -1 -187 -1 -189 2 -6 5 170 436 177 436 4
0 49 -98 101 -217z"/>
<path d="M4218 3169 l-3 -184 -197 -3 c-121 -1 -198 -6 -198 -12 0 -6 76 -10
200 -10 l200 0 0 -270 0 -269 33 5 c17 3 42 11 55 17 22 10 22 11 22 264 l0
253 193 0 c172 0 233 7 215 25 -16 16 -113 85 -119 85 -4 0 -22 -20 -40 -45
l-33 -46 -105 3 -106 3 -3 158 c-2 152 -2 159 18 164 39 10 23 33 -24 33 -24
0 -57 3 -75 6 l-31 6 -2 -183z"/>
<path d="M6216 3305 c-15 -23 -22 -25 -94 -25 -55 0 -89 6 -121 20 -24 11 -45
20 -47 20 -2 0 -4 -200 -4 -445 l0 -445 28 0 c15 0 38 7 50 16 22 15 22 18 22
270 l0 255 78 -3 77 -3 3 -32 c4 -37 3 -37 55 -22 l37 10 0 158 c0 155 0 159
22 164 12 4 20 8 18 10 -3 2 -28 20 -56 40 l-52 37 -16 -25z m-11 -110 l0 -60
-77 -3 -78 -3 0 66 0 66 78 -3 77 -3 0 -60z m3 -142 l3 -63 -81 0 -80 0 0 65
0 66 78 -3 77 -3 3 -62z"/>
<path d="M6674 3304 c-17 -25 -20 -25 -108 -22 -58 2 -104 10 -128 21 l-38 17
0 -205 0 -205 28 0 c32 0 72 25 72 46 0 11 17 14 80 14 l80 0 -2 -212 -3 -213
-95 -5 c-81 -4 -88 -6 -51 -12 53 -8 93 -36 101 -69 5 -21 12 -24 47 -23 55 1
90 25 102 71 7 23 11 173 11 380 0 336 0 343 21 353 19 11 17 14 -35 51 -30
21 -57 39 -60 39 -3 0 -13 -12 -22 -26z m-14 -109 l0 -65 -80 0 -80 0 0 65 0
65 80 0 80 0 0 -65z m0 -140 l0 -65 -80 0 -80 0 0 65 0 65 80 0 80 0 0 -65z"/>
<path d="M5528 3225 l-33 -44 -274 -1 c-186 0 -272 -3 -265 -10 14 -14 716 -9
720 5 2 6 -24 29 -56 52 l-60 43 -32 -45z"/>
<path d="M5618 2626 l-33 -45 -362 -1 c-235 0 -363 -4 -363 -10 0 -13 906 -14
914 -1 6 9 -40 49 -96 85 l-26 17 -34 -45z"/>
</g>
</svg>
